<?xml version="1.0" encoding="UTF-8"?>
<!DOCTYPE svg PUBLIC "-//W3C//DTD SVG 1.1//EN" "http://www.w3.org/Graphics/SVG/1.1/DTD/svg11.dtd">
<!-- Creator: CorelDRAW X8 -->
<svg xmlns="http://www.w3.org/2000/svg" xml:space="preserve" width="9.8286mm" height="9.8778mm" version="1.1" style="shape-rendering:geometricPrecision; text-rendering:geometricPrecision; image-rendering:optimizeQuality; fill-rule:evenodd; clip-rule:evenodd"
viewBox="0 0 43 43"
 xmlns:xlink="http://www.w3.org/1999/xlink">
 <defs>
  <style type="text/css">
   <![CDATA[
    .fil0 {fill:white}
   ]]>
  </style>
 </defs>
 <g id="Слой_x0020_1">
  <metadata id="CorelCorpID_0Corel-Layer"/>
  <g id="_2374523026976">
   <path class="fil0" d="M16 13c0,0 -1,-1 -1,-1 0,-1 1,-2 1,-2 4,0 8,0 12,0 1,0 1,1 1,1 -1,0 -3,-1 -4,-1 -3,0 -6,1 -8,3l-1 0zm-9 25l8 0 0 0 3 0c-1,-1 -2,-1 -3,-2l0 0 -3 0 -5 0c-1,0 -2,0 -2,1 0,0 1,1 2,1zm0 -10l4 0c-1,-1 -1,-2 -1,-3l-3 0c-1,0 -2,1 -2,2 0,0 1,1 2,1zm0 5l6 0c-1,-1 -1,-2 -2,-3l-4 0c-1,0 -2,1 -2,2 0,0 1,1 2,1zm23 10l-4 0 -13 0 -8 0c-3,0 -5,-2 -5,-5l0 -27c0,0 0,0 0,-1 0,0 0,0 1,-1l9 -8c0,-1 1,-1 1,-1 0,0 0,0 1,0l18 0c3,0 5,2 5,5l0 3 0 1 0 6c-1,-1 -2,-2 -2,-2l0 -5 0 -3c0,-1 -2,-2 -3,-2l-17 0 0 4c0,3 -3,5 -6,5l-4 0 0 26c0,1 1,3 2,3l8 0 11 0 6 0c1,0 1,-1 2,-1l2 1c-1,2 -3,2 -4,2zm-23 -20l3 0c1,-1 1,-2 1,-3l-4 0c-1,0 -2,1 -2,2 0,0 1,1 2,1zm-2 -6c0,0 1,1 2,1l5 0c1,-1 1,-2 2,-3l-7 0c-1,0 -2,1 -2,2z"/>
   <path class="fil0" d="M18 25l2 0c0,-2 2,-5 5,-5l0 -1c-4,0 -7,2 -7,6zm7 -12c-7,0 -12,5 -12,12 0,7 5,13 12,13 2,0 5,-1 6,-2l7 6c1,1 1,1 2,1 1,0 2,0 2,-1 1,0 1,-1 1,-2 0,0 0,-1 -1,-2l-7 -6c2,-2 2,-4 2,-7 0,-7 -5,-12 -12,-12zm0 21c-5,0 -9,-4 -9,-9 0,-5 4,-8 9,-8 5,0 9,3 9,8 0,5 -4,9 -9,9z"/>
  </g>
 </g>
</svg>
