<?xml version="1.0" encoding="UTF-8"?>
<!DOCTYPE svg PUBLIC "-//W3C//DTD SVG 1.1//EN" "http://www.w3.org/Graphics/SVG/1.1/DTD/svg11.dtd">
<!-- Creator: CorelDRAW X8 -->
<svg xmlns="http://www.w3.org/2000/svg" xml:space="preserve" width="9.8778mm" height="9.8778mm" version="1.1" style="shape-rendering:geometricPrecision; text-rendering:geometricPrecision; image-rendering:optimizeQuality; fill-rule:evenodd; clip-rule:evenodd"
viewBox="0 0 55 55"
 xmlns:xlink="http://www.w3.org/1999/xlink">
 <defs>
  <style type="text/css">
   <![CDATA[
    .fil0 {fill:white;fill-rule:nonzero}
   ]]>
  </style>
 </defs>
 <g id="Слой_x0020_1">
  <metadata id="CorelCorpID_0Corel-Layer"/>
  <path class="fil0" d="M27 3c-6,0 -13,3 -17,7 -4,4 -7,11 -7,17 0,7 3,13 7,18 4,4 11,7 17,7 7,0 13,-3 18,-7 4,-5 7,-11 7,-18 0,-6 -3,-13 -7,-17 -5,-4 -11,-7 -18,-7zm6 24l0 0c2,-1 3,-3 3,-5 0,-3 -1,-5 -3,-6 -1,0 -2,-1 -3,-1l0 -3c0,0 -1,0 -1,0l-2 0c0,0 0,0 0,0l0 3 -2 0 0 -3c0,0 0,0 -1,0l-2 0c0,0 0,0 0,0l0 3 -4 0c0,0 -1,1 -1,1l0 2c0,0 1,1 1,1l1 0c1,0 1,0 1,1l0 15c0,0 0,1 -1,1l-1 0c0,0 -1,0 -1,0l0 3c0,0 1,0 1,0l4 0 0 4c0,0 0,0 0,0l2 0c1,0 1,0 1,0l0 -4 2 0 0 4c0,0 0,0 0,0l2 0c0,0 1,0 1,0l0 -4c1,0 2,0 3,0 2,-1 4,-3 4,-7 0,-2 -1,-4 -4,-5zm-8 -8l3 0c1,0 2,0 2,0 1,1 2,2 2,3 0,2 -1,3 -3,3l-4 0 0 -6zm6 16c-1,1 -1,1 -2,1l-4 0 0 -7 4 0c3,0 4,1 4,3 0,2 -1,3 -2,3zm-4 12c-10,0 -19,-9 -19,-20 0,-10 9,-19 19,-19 11,0 20,9 20,19 0,11 -9,20 -20,20zm-19 -39c5,-5 12,-8 19,-8 8,0 15,3 20,8 5,5 8,12 8,19 0,8 -3,15 -8,20 -5,5 -12,8 -20,8 -7,0 -14,-3 -19,-8 -5,-5 -8,-12 -8,-20 0,-7 3,-14 8,-19z"/>
 </g>
</svg>
