<?xml version="1.0" encoding="UTF-8"?>
<!DOCTYPE svg PUBLIC "-//W3C//DTD SVG 1.1//EN" "http://www.w3.org/Graphics/SVG/1.1/DTD/svg11.dtd">
<!-- Creator: CorelDRAW X8 -->
<svg xmlns="http://www.w3.org/2000/svg" xml:space="preserve" width="9.8778mm" height="9.8778mm" version="1.1" style="shape-rendering:geometricPrecision; text-rendering:geometricPrecision; image-rendering:optimizeQuality; fill-rule:evenodd; clip-rule:evenodd"
viewBox="0 0 133 133"
 xmlns:xlink="http://www.w3.org/1999/xlink">
 <defs>
  <style type="text/css">
   <![CDATA[
    .fil0 {fill:white}
   ]]>
  </style>
 </defs>
 <g id="Слой_x0020_1">
  <metadata id="CorelCorpID_0Corel-Layer"/>
  <path class="fil0" d="M50 39c-2,0 -4,-1 -4,-4 0,-2 2,-3 4,-3l3 0 12 0 7 0 12 0 2 0c2,0 4,1 4,3 0,3 -2,4 -4,4l-2 0 -3 0 -25 0 -3 0 -3 0zm67 52l6 4c0,0 0,1 0,1 0,1 0,1 0,1l0 0c0,0 0,1 0,1 -6,9 -13,19 -19,28 -1,0 -1,0 -1,1 0,0 -1,0 -1,0l0 0c-1,0 -1,0 -1,-1 -1,0 -1,0 -1,0 -5,-13 -10,-27 -14,-39 0,-1 0,-1 0,-1l0 0c0,0 0,0 0,0l0 -1c0,0 0,0 0,0l0 0c0,0 0,0 0,0l1 0c0,-1 0,-1 0,-1l0 0c0,0 0,0 0,0 1,0 1,0 1,0 1,0 1,0 1,0 9,3 18,5 27,7l0 0c0,0 1,0 1,0 0,0 0,0 0,0l0 0zm1 5l-2 -1c-2,2 -3,3 -5,5l7 -4zm-10 3l4 -5c-6,-2 -13,-3 -19,-5l11 14 4 -4zm9 2c-4,2 -8,4 -12,5 0,4 0,8 -1,12 4,-5 8,-11 13,-17zm-16 12l1 -2 0 -5c-3,-5 -7,-9 -10,-13l9 25c0,-1 0,-3 0,-5zm-80 -43l24 0 0 0 17 0 0 0 24 0c2,0 4,-1 4,-4 0,-2 -2,-3 -4,-3l-17 0 -7 0 -17 0 -8 0 -16 0c-2,0 -4,1 -4,3 0,3 2,4 4,4zm-4 -19c0,2 2,4 4,4l16 0 10 0 13 0 9 0 17 0c2,0 4,-2 4,-4 0,-2 -2,-4 -4,-4l-29 0 0 0 -6 0 0 0 -30 0c-2,0 -4,2 -4,4zm53 35c2,-3 4,-6 6,-8l-15 0 0 0 -15 0 0 0 -25 0c-2,0 -4,2 -4,4l0 0c0,2 2,4 4,4l16 0 12 0 9 0 11 0 1 0zm-49 15l25 0 15 0 5 0c0,-2 1,-5 1,-7l-13 0 -1 0 -32 0c-2,0 -4,1 -4,3 0,3 2,4 4,4zm0 16l47 0c-1,-3 -2,-5 -2,-8l-45 0c-3,0 -4,2 -4,4 0,2 1,4 4,4zm-4 16l64 0c-3,-2 -6,-5 -8,-8l-56 0c-5,0 -9,-4 -9,-8l0 -80 14 0c9,0 17,-8 17,-17l0 -12 52 0c5,0 9,4 9,8l0 9 0 42c1,-1 2,-1 4,-1 1,0 2,0 4,1l0 -39 0 -3 0 -9c0,-9 -8,-16 -17,-16l-55 0c-1,0 -2,0 -3,0 -1,1 -1,1 -2,2l-29 27c-1,1 -1,2 -2,3 0,0 0,1 0,2l0 83c0,9 7,16 17,16zm87 -58c16,0 29,13 29,29 0,16 -13,29 -29,29 -17,0 -30,-13 -30,-29 0,-16 13,-29 30,-29z"/>
 </g>
</svg>
