<?xml version="1.0" encoding="UTF-8"?>
<!DOCTYPE svg PUBLIC "-//W3C//DTD SVG 1.1//EN" "http://www.w3.org/Graphics/SVG/1.1/DTD/svg11.dtd">
<!-- Creator: CorelDRAW X8 -->
<svg xmlns="http://www.w3.org/2000/svg" xml:space="preserve" width="9.8778mm" height="9.8778mm" version="1.1" style="shape-rendering:geometricPrecision; text-rendering:geometricPrecision; image-rendering:optimizeQuality; fill-rule:evenodd; clip-rule:evenodd"
viewBox="0 0 142 142"
 xmlns:xlink="http://www.w3.org/1999/xlink">
 <defs>
  <style type="text/css">
   <![CDATA[
    .fil0 {fill:white}
    .fil1 {fill:white;fill-rule:nonzero}
   ]]>
  </style>
 </defs>
 <g id="Слой_x0020_1">
  <metadata id="CorelCorpID_0Corel-Layer"/>
  <g id="_2374912226656">
   <path id="path2991" class="fil0" d="M53 86l0 0 -1 19 0 0c2,0 2,-1 4,-2 0,0 4,-4 9,-9l19 14c4,2 6,1 7,-3l13 -59c1,-6 -2,-8 -6,-6l-74 28c-5,2 -5,5 -1,6l19 6 44 -27c2,-2 4,-1 3,0l-36 33z"/>
   <path class="fil1" d="M71 7c-18,0 -34,7 -45,19 -12,11 -19,27 -19,45 0,18 7,33 19,45 11,12 27,19 45,19 18,0 33,-7 45,-19 12,-12 19,-27 19,-45 0,-18 -7,-34 -19,-45 -12,-12 -27,-19 -45,-19zm-50 14c13,-13 30,-21 50,-21 19,0 37,8 50,21 13,13 21,30 21,50 0,19 -8,37 -21,50 -13,13 -31,21 -50,21 -20,0 -37,-8 -50,-21 -13,-13 -21,-31 -21,-50 0,-20 8,-37 21,-50z"/>
  </g>
 </g>
</svg>
