<?xml version="1.0" ?><!DOCTYPE svg  PUBLIC '-//W3C//DTD SVG 1.1//EN'  'http://www.w3.org/Graphics/SVG/1.1/DTD/svg11.dtd'><svg enable-background="new 0 0 156.856 156.856" height="156.856" id="Layer_1" overflow="visible" version="1.1" viewBox="0 0 156.856 156.856" width="156.856" xml:space="preserve" xmlns="http://www.w3.org/2000/svg" xmlns:xlink="http://www.w3.org/1999/xlink"><g id="icon"><circle cx="78.429" cy="78.428" fill="#D84E4E" r="78.428"/><path d="M118.979,117.155c1.135-2.667,1.532-5.236,2.033-12.491c0.132-2.187,0.132-9.637,0-11.822   c-0.32-4.596-0.376-10.466-3.523-15.186c-1.469-1.838-3.969-3.262-6.628-3.739c-3.329-0.602-17.547-1.076-32.189-1.076   c-14.684,0-28.86,0.474-32.188,1.076c-2.131,0.379-4.024,1.299-5.654,2.726c-3.46,3.05-3.711,8.275-4.233,12.676   c-0.626,7.979-0.508,10.138,0,18.862c0.334,3.864,0.571,5.451,1.17,7.353c0.696,2.29,1.594,3.934,2.729,5.006   c1.462,1.435,3.454,2.409,5.751,2.854c3.398,0.669,8.926,0.919,25.101,1.212l0,0c13.487,0.195,25.379-0.014,39.375-1.017   c2.242-0.369,4.303-1.379,5.933-2.89C117.685,119.718,118.283,118.826,118.979,117.155z M62.031,86.269h-5.703v29.236h-5.709   V86.269h-5.703v-4.989h17.115V86.269z M78.429,115.505h-4.993v-3.015c-0.71,1.017-1.88,1.811-2.875,2.34   c-0.989,0.543-1.957,0.808-2.896,0.808c-1.142,0-2.019-0.376-2.597-1.128c-0.578-0.76-0.898-1.88-0.898-3.398V89.833h4.992v19.538   c0,0.599,0.104,1.03,0.299,1.295c0.223,0.278,0.557,0.403,1.017,0.403c0.355,0,0.849-0.181,1.406-0.528   c0.557-0.362,0.843-0.815,1.553-1.365V89.833h4.993V115.505z M96.253,109.803h0.042c0,2.138-0.39,3.279-1.17,4.233   c-0.766,0.961-1.894,1.49-3.356,1.49c-0.975,0-1.872-0.153-2.632-0.516c-0.752-0.369-1.44-0.905-2.151-1.685v2.179h-4.992V81.279   h4.992v10.727c0.711-0.766,1.421-1.351,2.159-1.755c0.759-0.403,1.538-0.599,2.305-0.599c1.56,0,2.75,0.529,3.578,1.608   c0.822,1.079,1.226,2.653,1.226,4.728V109.803z M104.524,110.764c0.32,0.515,0.856,0.766,1.657,0.766   c0.822,0,1.379-0.216,1.713-0.654c0.32-0.445,0.48-1.399,0.48-2.89v-1.037h4.282v1.184c0,2.597-0.223,4.554-1.476,5.869   c-1.226,1.302-2.883,1.957-5.348,1.957c-2.222,0-3.76-0.696-5.027-2.089c-1.268-1.379-1.699-3.301-1.699-5.737V96.769   c0-2.187,0.585-3.99,1.992-5.375c1.399-1.379,3.14-2.062,5.36-2.062c2.271,0,3.579,0.641,4.798,1.915   c1.219,1.281,1.399,3.126,1.399,5.521v6.614h-8.564v4.609C104.093,109.315,104.204,110.248,104.524,110.764z M108.375,99.107   h-4.282v-2.381c0-1.072,0.104-1.824,0.46-2.27c0.334-0.474,0.85-0.711,1.636-0.711c0.76,0,1.33,0.237,1.664,0.704   c0.342,0.452,0.522,1.211,0.522,2.27V99.107z M90.711,94.331c0.348,0.446,0.55,1.087,0.55,1.95v13.062   c0,0.808-0.188,1.386-0.474,1.741c-0.285,0.362-0.772,0.543-1.371,0.543c-0.425,0-0.836-0.098-1.219-0.265   c-0.383-0.181-0.494-0.501-1.212-0.905V94.687c0.718-0.349,0.718-0.612,1.052-0.772c0.348-0.168,0.752-0.251,1.1-0.251   C89.806,93.663,90.349,93.886,90.711,94.331z M49.658,28.52l7.381,22.232v14.845h6.419V50.038L70.7,28.52h-6.385l-3.878,14.26   H60.04l-4.073-14.26H49.658z M73.464,39.054c-1.49,1.277-2.166,2.994-2.166,5.163v14.448c0,2.371,0.655,4.251,2.11,5.654   c1.469,1.399,3.377,2.106,5.821,2.106c2.527,0,4.33-0.679,5.786-2.037c1.427-1.361,1.97-3.224,1.97-5.612V44.377   c0-2.124-0.57-3.871-2.04-5.218c-1.476-1.344-3.244-2.023-5.556-2.023C76.869,37.139,74.961,37.776,73.464,39.054z M81.993,44.001   v15.193c0,0.749-0.403,1.333-0.85,1.765c-0.445,0.428-1.135,0.637-1.887,0.637c-0.745,0-1.288-0.202-1.678-0.63   c-0.397-0.421-0.578-1.006-0.578-1.772V44.001c0-0.605,0.153-1.093,0.564-1.476c0.438-0.376,0.953-0.557,1.636-0.557   c0.731,0,1.49,0.181,1.942,0.557C81.604,42.908,81.993,43.396,81.993,44.001z M107.658,65.718V37.787h-5.703v21.219   c0,0.606-0.981,1.1-1.608,1.5c-0.64,0.39-1.1,0.585-1.511,0.585c-0.521,0-0.73-0.146-0.968-0.449   c-0.223-0.292-0.188-0.77-0.188-1.424V37.787h-5.703v23.36c0,1.664,0.258,2.907,0.905,3.729c0.654,0.835,1.588,1.253,2.876,1.253   c1.052,0,1.998-0.303,3.112-0.892c1.114-0.599,2.374-1.465,3.084-2.604v2.963h5.772L107.658,65.718z" fill="#FFFFFF"/></g></svg>